<?xml version="1.0" encoding="UTF-8"?>
<svg id="Layer_1" xmlns="http://www.w3.org/2000/svg" version="1.1" viewBox="0 0 612 792">
  <!-- Generator: Adobe Illustrator 29.8.1, SVG Export Plug-In . SVG Version: 2.1.1 Build 2)  -->
  <defs>
    <style>
      .st0 {
        fill: none;
      }

      .st1 {
        font-family: Gotham-BoldItalic, Gotham;
      }

      .st1, .st2 {
        font-style: italic;
      }

      .st2 {
        font-family: Gotham-BlackItalic, Gotham;
        font-weight: 800;
      }

      .st2, .st3, .st4 {
        fill: #ef4125;
      }

      .st2, .st4 {
        font-size: 7.61px;
      }

      .st5 {
        font-family: Gotham-Bold, Gotham;
      }

      .st4 {
        font-weight: 700;
      }
    </style>
  </defs>
  <rect class="st0" x="281" y="387.5" width="50" height="50" transform="translate(718.5 106.5) rotate(90)"/>
  <g>
    <g>
      <path class="st3" d="M299.92,409.24c-1.17.04-2.11-.74-2.16-2.19-.06-1.81,1.16-3.67,3.14-3.74.81-.03,1.49.3,1.88.99l3.93-1.88c-.79-1.99-2.75-3.19-5.36-3.1-5.7.2-8.33,4.68-8.2,8.29.12,3.55,2.77,5.71,6.47,5.58,2.81-.1,4.7-1.32,5.96-3.1l-3.14-2.31c-.69.91-1.5,1.43-2.52,1.47Z"/>
      <path class="st3" d="M318.85,394h-11.01l-1,3.72h5.32l-3.83,2.5.06,2.13h1.82c1.31,0,1.7.37,1.7.94,0,.72-.8,1.39-2.11,1.39-.77,0-1.53-.03-2.13-.43l-4.03,1.92c.86,1.06,2.68,2.45,6.29,2.45,2.29,0,4.09-.63,5.24-1.78.92-.92,1.39-2.11,1.39-3.56,0-1.55-.96-2.84-2.78-3.4l4.15-2.6.9-3.29Z"/>
    </g>
    <g>
      <text class="st4" transform="translate(294.48 421.84)"><tspan class="st1" x="0" y="0">Local</tspan><tspan class="st5" x="20.75" y="0"> </tspan></text>
      <text class="st2" transform="translate(286.48 428.62)"><tspan x="0" y="0">Marketing</tspan></text>
    </g>
  </g>
</svg>