<?xml version="1.0" encoding="UTF-8"?>
<svg id="Layer_1" xmlns="http://www.w3.org/2000/svg" version="1.1" viewBox="0 0 612 792">
  <!-- Generator: Adobe Illustrator 29.8.1, SVG Export Plug-In . SVG Version: 2.1.1 Build 2)  -->
  <defs>
    <style>
      .st0 {
        fill: none;
      }

      .st1 {
        fill: #ef4523;
      }

      .st2 {
        fill: #fff;
      }
    </style>
  </defs>
  <circle class="st2" cx="300.32" cy="385.82" r="132.18"/>
  <rect class="st0" x="168.15" y="253.65" width="264.35" height="264.35" transform="translate(686.15 85.5) rotate(90)"/>
  <g>
    <path class="st1" d="M251.44,431.26c-9.42.33-16.94-5.95-17.35-17.65-.51-14.58,9.32-29.53,25.27-30.08,6.53-.23,11.95,2.38,15.15,7.95l31.58-15.08c-6.39-15.99-22.12-25.67-43.13-24.93-45.88,1.6-66.99,37.62-65.98,66.64.99,28.56,22.29,45.92,52.06,44.88,22.64-.79,37.81-10.6,47.96-24.94l-25.29-18.59c-5.52,7.34-12.07,11.52-20.28,11.81Z"/>
    <path class="st1" d="M403.69,308.62h-88.53l-8.06,29.95h42.78l-30.77,20.07.49,17.11h14.65c10.53,0,13.66,2.96,13.66,7.57,0,5.76-6.42,11.19-16.95,11.19-6.16,0-12.28-.22-17.09-3.43l-32.38,15.46c6.93,8.56,21.54,19.72,50.63,19.72,18.43,0,32.91-5.1,42.12-14.32,7.4-7.41,11.19-16.95,11.19-28.63,0-12.51-7.73-22.87-22.38-27.31l33.4-20.9,7.24-26.49Z"/>
  </g>
</svg>