<?xml version="1.0" encoding="UTF-8"?>
<svg id="Layer_1" data-name="Layer 1" xmlns="http://www.w3.org/2000/svg" viewBox="0 0 210.12 210.12">
  <defs>
    <style>
      .cls-1 {
        fill: #fff;
      }

      .cls-2 {
        fill: #ef4125;
      }

      .cls-3 {
        fill: none;
        stroke: #9c9c9b;
        stroke-miterlimit: 10;
        stroke-width: .12px;
      }
    </style>
  </defs>
  <circle class="cls-2" cx="105.06" cy="105.06" r="91.18"/>
  <rect class="cls-3" x=".06" y=".06" width="210" height="210" transform="translate(210.12) rotate(90)"/>
  <g>
    <path class="cls-1" d="M71.34,136.4c-6.5.23-11.68-4.1-11.97-12.17-.35-10.06,6.43-20.37,17.43-20.75,4.5-.16,8.24,1.64,10.45,5.48l21.79-10.4c-4.41-11.03-15.26-17.71-29.75-17.2-31.65,1.1-46.21,25.95-45.51,45.97.69,19.7,15.37,31.68,35.91,30.96,15.61-.54,26.08-7.31,33.08-17.21l-17.44-12.82c-3.81,5.06-8.33,7.95-13.99,8.15Z"/>
    <path class="cls-1" d="M176.37,51.81h-61.07l-5.56,20.66h29.51l-21.23,13.85.34,11.81h10.1c7.26,0,9.42,2.04,9.42,5.22,0,3.97-4.43,7.72-11.69,7.72-4.25,0-8.47-.15-11.79-2.36l-22.34,10.67c4.78,5.9,14.86,13.6,34.92,13.6,12.71,0,22.7-3.52,29.06-9.88,5.11-5.11,7.72-11.69,7.72-19.75,0-8.63-5.33-15.78-15.44-18.84l23.04-14.42,4.99-18.28Z"/>
  </g>
</svg>